<?xml version="1.0" standalone="no"?><!DOCTYPE svg PUBLIC "-//W3C//DTD SVG 1.1//EN" "http://www.w3.org/Graphics/SVG/1.1/DTD/svg11.dtd"><svg t="1603545944624" class="icon" viewBox="0 0 1024 1024" version="1.1" xmlns="http://www.w3.org/2000/svg" p-id="4785" width="1000" height="1000" xmlns:xlink="http://www.w3.org/1999/xlink"><defs><style type="text/css"></style></defs><path d="M973.824 527.36c1.024 3.072 2.048 7.168 3.072 10.24 0-4.096-1.024-7.168-3.072-10.24zM837.632 814.08l3.072-3.072-3.072 3.072zM867.328 841.728c-1.024 1.024-3.072 2.048-4.096 4.096 1.024-2.048 2.048-3.072 4.096-4.096zM110.592 212.992c2.048-2.048 3.072-4.096 5.12-6.144-2.048 1.024-4.096 3.072-5.12 6.144z" fill="#FFFFFF" p-id="4786"></path><path d="M956.416 285.696c-2.048-5.12-5.12-10.24-7.168-14.336-7.168-13.312-14.336-26.624-22.528-38.912-1.024-1.024-2.048-3.072-3.072-4.096-1.024-1.024-2.048-2.048-3.072-4.096-4.096-3.072-9.216-5.12-14.336-5.12-12.288 0-22.528 10.24-22.528 22.528 0 3.072 1.024 6.144 2.048 8.192 1.024 2.048 3.072 4.096 4.096 6.144 7.168 12.288 14.336 25.6 21.504 37.888l3.072 6.144c4.096 6.144 11.264 9.216 18.432 9.216 13.312 0 23.552-10.24 23.552-23.552 0 2.048 0 1.024 0 0zM1003.52 478.208c-2.048-48.128-10.24-95.232-24.576-138.24-2.048-10.24-11.264-18.432-22.528-18.432-12.288 0-23.552 10.24-23.552 23.552 0 3.072 1.024 6.144 2.048 9.216 12.288 38.912 20.48 80.896 21.504 123.904v9.216c2.048 10.24 12.288 18.432 23.552 18.432 12.288 0 22.528-9.216 23.552-21.504v-2.048-4.096z" fill="#AA7208" p-id="4787"></path><path d="M149.504 415.744c-27.648 1.024-67.584 15.36-64.512 93.184h319.488v-1.024l-219.136-84.992c-11.264-5.12-23.552-8.192-35.84-7.168zM875.52 415.744c-12.288 0-24.576 2.048-35.84 7.168l-219.136 84.992v1.024h319.488c2.048-77.824-36.864-93.184-64.512-93.184zM671.744 126.976l-20.48-14.336c-11.264-8.192-24.576-12.288-37.888-12.288h-16.384c-2.048 0-4.096 1.024-5.12 4.096-12.288 31.744-43.008 54.272-79.872 54.272-35.84 0-67.584-22.528-79.872-54.272 0-2.048-2.048-3.072-4.096-3.072h-15.36c-13.312 0-26.624 4.096-37.888 12.288l-21.504 15.36c-29.696 20.48-36.864 60.416-17.408 90.112L460.8 405.504c7.168 11.264 17.408 20.48 29.696 25.6 27.648 10.24 57.344 0 71.68-22.528l126.976-189.44c19.456-30.72 12.288-71.68-17.408-92.16zM882.688 353.28c6.144-24.576 2.048-50.176-12.288-70.656l-18.432-25.6c-14.336-20.48-36.864-33.792-62.464-35.84-23.552-2.048-46.08 8.192-60.416 27.648L590.848 439.296c-4.096 6.144-4.096 14.336 0 20.48 4.096 6.144 12.288 9.216 19.456 7.168l226.304-65.536c22.528-7.168 39.936-24.576 46.08-48.128zM294.912 248.832c-14.336-19.456-36.864-29.696-60.416-27.648-24.576 2.048-48.128 15.36-62.464 35.84L153.6 282.624c-14.336 20.48-19.456 46.08-12.288 70.656 6.144 22.528 23.552 40.96 46.08 47.104l226.304 65.536c7.168 2.048 15.36-1.024 19.456-7.168 4.096-6.144 4.096-14.336 0-20.48L294.912 248.832z" fill="#F5EA28" p-id="4788"></path><path d="M150.528 232.448c-1.024 2.048-3.072 4.096-4.096 5.12 2.048-1.024 3.072-3.072 4.096-5.12zM223.232 153.6c-1.024 1.024-2.048 2.048-4.096 3.072 2.048-1.024 3.072-2.048 4.096-3.072zM191.488 123.904c2.048-1.024 3.072-3.072 5.12-4.096-2.048 1.024-3.072 3.072-5.12 4.096z" fill="#FFFFFF" p-id="4789"></path><path d="M131.072 200.704c-6.144 0-11.264 2.048-15.36 6.144-2.048 2.048-3.072 4.096-5.12 6.144C57.344 287.744 24.576 378.88 20.48 478.208v12.288c2.048 10.24 12.288 18.432 23.552 18.432 6.144 0 12.288-3.072 16.384-7.168l3.072-3.072c1.024-1.024 1.024-2.048 2.048-4.096 1.024-1.024 1.024-3.072 1.024-4.096v-2.048-4.096c2.048-91.136 30.72-175.104 79.872-244.736 1.024-2.048 3.072-4.096 4.096-5.12 2.048-3.072 2.048-6.144 2.048-10.24 0-14.336-9.216-23.552-21.504-23.552zM888.832 181.248c-1.024-2.048-3.072-4.096-4.096-5.12C794.624 71.68 661.504 5.12 512 5.12 392.192 5.12 281.6 48.128 196.608 119.808c-2.048 1.024-3.072 3.072-5.12 4.096-3.072 4.096-5.12 9.216-5.12 14.336 0 12.288 9.216 21.504 21.504 21.504 4.096 0 8.192-1.024 12.288-4.096 1.024-1.024 2.048-2.048 4.096-3.072 63.488-54.272 143.36-91.136 231.424-102.4-2.048 9.216-2.048 20.48 1.024 30.72 5.12 19.456 20.48 34.816 39.936 39.936 45.056 12.288 84.992-26.624 74.752-70.656 112.64 14.336 211.968 71.68 282.624 153.6 1.024 2.048 3.072 3.072 4.096 5.12 2.048 4.096 7.168 6.144 12.288 6.144 12.288 0 21.504-10.24 21.504-22.528 1.024-4.096-1.024-8.192-3.072-11.264z" fill="#AA7208" p-id="4790"></path><path d="M454.656 51.2c-2.048 9.216-2.048 20.48 1.024 30.72 5.12 19.456 21.504 34.816 40.96 40.96 45.056 12.288 86.016-26.624 75.776-71.68-20.48-3.072-39.936-4.096-60.416-4.096-19.456 0-38.912 1.024-57.344 4.096z" fill="#F5EA28" p-id="4791"></path><path d="M48.128 683.008c-1.024-3.072-2.048-7.168-3.072-10.24 0 4.096 1.024 7.168 3.072 10.24zM139.264 839.68c-2.048-2.048-3.072-4.096-4.096-5.12 1.024 1.024 2.048 3.072 4.096 5.12zM136.192 760.832c-1.024-1.024-2.048-2.048-2.048-3.072 1.024 2.048 3.072 4.096 4.096 6.144-1.024-1.024-1.024-2.048-2.048-3.072zM98.304 784.384l2.048 2.048c-1.024-1.024-2.048-3.072-3.072-4.096 0 1.024 1.024 2.048 1.024 2.048zM111.616 716.8c-1.024-1.024-1.024-3.072-2.048-4.096l3.072 6.144s-1.024-1.024-1.024-2.048z" fill="#FFFFFF" p-id="4792"></path><path d="M67.584 729.088c2.048 5.12 5.12 10.24 7.168 14.336 7.168 13.312 14.336 26.624 22.528 38.912 1.024 1.024 2.048 3.072 3.072 4.096 1.024 1.024 2.048 2.048 3.072 4.096 4.096 3.072 9.216 5.12 14.336 5.12 12.288 0 22.528-10.24 22.528-22.528 0-3.072-1.024-6.144-2.048-8.192-1.024-2.048-3.072-4.096-4.096-6.144-7.168-12.288-14.336-25.6-21.504-37.888l-3.072-6.144c-4.096-6.144-11.264-9.216-18.432-9.216-13.312 0-23.552 10.24-23.552 23.552 0-2.048 0-1.024 0 0zM20.48 536.576c2.048 48.128 10.24 95.232 24.576 138.24 2.048 10.24 11.264 18.432 22.528 18.432 12.288 0 23.552-10.24 23.552-23.552 0-3.072-1.024-6.144-2.048-9.216-12.288-38.912-20.48-80.896-21.504-123.904v-9.216c-2.048-10.24-12.288-18.432-23.552-18.432-12.288 0-22.528 9.216-23.552 21.504V536.576z" fill="#AA7208" p-id="4793"></path><path d="M874.496 600.064c27.648-1.024 67.584-15.36 64.512-93.184H618.496v1.024l219.136 84.992c12.288 4.096 24.576 7.168 36.864 7.168zM148.48 600.064c12.288 0 24.576-2.048 35.84-7.168l219.136-84.992v-1.024H84.992c-3.072 77.824 35.84 92.16 63.488 93.184zM352.256 887.808l20.48 14.336c11.264 8.192 24.576 12.288 37.888 12.288h16.384c2.048 0 4.096-1.024 5.12-4.096 12.288-31.744 43.008-54.272 79.872-54.272 35.84 0 67.584 22.528 79.872 54.272 1.024 2.048 3.072 4.096 5.12 4.096h15.36c13.312 0 26.624-4.096 37.888-12.288l21.504-15.36c29.696-20.48 36.864-60.416 17.408-90.112L563.2 610.304c-7.168-11.264-17.408-20.48-29.696-25.6-27.648-10.24-57.344 0-71.68 22.528L334.848 796.672c-19.456 30.72-12.288 70.656 17.408 91.136zM141.312 661.504c-6.144 24.576-2.048 50.176 12.288 70.656l18.432 25.6c14.336 20.48 36.864 33.792 62.464 35.84 23.552 2.048 46.08-8.192 60.416-27.648l138.24-190.464c4.096-6.144 4.096-14.336 0-20.48-4.096-6.144-12.288-9.216-19.456-7.168L187.392 614.4c-22.528 6.144-39.936 23.552-46.08 47.104zM729.088 765.952c14.336 19.456 36.864 29.696 60.416 27.648 24.576-2.048 48.128-15.36 62.464-35.84l18.432-25.6c14.336-20.48 19.456-46.08 12.288-70.656-6.144-22.528-23.552-40.96-46.08-47.104l-226.304-65.536c-7.168-2.048-15.36 1.024-19.456 7.168-4.096 6.144-4.096 14.336 0 20.48l138.24 189.44z" fill="#F5EA28" p-id="4794"></path><path d="M167.936 805.888c1.024 2.048 3.072 3.072 4.096 5.12-1.024-2.048-3.072-4.096-4.096-5.12z" fill="#FFFFFF" p-id="4795"></path><path d="M892.928 815.104c6.144 0 11.264-2.048 15.36-6.144 2.048-2.048 3.072-4.096 5.12-6.144 53.248-75.776 86.016-166.912 90.112-265.216v-12.288c-2.048-10.24-12.288-18.432-23.552-18.432-6.144 0-12.288 3.072-16.384 7.168l-3.072 3.072c-1.024 1.024-1.024 2.048-2.048 4.096-1.024 1.024-1.024 3.072-1.024 4.096V531.456c-2.048 91.136-30.72 175.104-79.872 244.736-1.024 2.048-3.072 4.096-4.096 5.12-2.048 3.072-2.048 6.144-2.048 10.24 0 13.312 9.216 23.552 21.504 23.552zM135.168 833.536c1.024 2.048 3.072 4.096 4.096 5.12C229.376 944.128 362.496 1009.664 512 1009.664c119.808 0 230.4-43.008 315.392-114.688 2.048-1.024 3.072-3.072 5.12-4.096 3.072-4.096 5.12-9.216 5.12-14.336 0-12.288-9.216-21.504-21.504-21.504-4.096 0-8.192 1.024-12.288 4.096-1.024 1.024-2.048 2.048-4.096 3.072-63.488 54.272-143.36 91.136-231.424 102.4 2.048-9.216 2.048-20.48-1.024-30.72-5.12-19.456-20.48-34.816-39.936-39.936-45.056-12.288-84.992 26.624-74.752 70.656-112.64-14.336-211.968-71.68-282.624-153.6-1.024-2.048-3.072-3.072-4.096-5.12-4.096-3.072-9.216-6.144-14.336-6.144-12.288 0-21.504 10.24-21.504 22.528 1.024 4.096 3.072 8.192 5.12 11.264z" fill="#AA7208" p-id="4796"></path><path d="M569.344 964.608c2.048-9.216 2.048-20.48-1.024-30.72-5.12-19.456-21.504-34.816-40.96-40.96-45.056-12.288-86.016 26.624-75.776 71.68 19.456 2.048 38.912 4.096 58.368 4.096 21.504-1.024 40.96-2.048 59.392-4.096z" fill="#F5EA28" p-id="4797"></path></svg>